<svg width="43" height="42" viewBox="0 0 43 42" fill="none" xmlns="http://www.w3.org/2000/svg">
<g clip-path="url(#clip0)">
<path d="M21.7896 42C10.2033 42 0.789551 32.5862 0.789551 21C0.789551 9.41379 10.2033 0 21.7896 0C33.3758 0 42.7896 9.41379 42.7896 21C42.7896 32.5862 33.3758 42 21.7896 42ZM21.7896 2.17241C11.4102 2.17241 2.84127 10.6207 2.84127 21.1207C2.84127 31.6207 11.2896 40.069 21.7896 40.069C32.2896 40.069 40.7378 31.6207 40.7378 21.1207C40.7378 10.6207 32.2896 2.17241 21.7896 2.17241Z" fill="#FCBE00"/>
<path d="M21.7896 5.7931C21.1861 5.7931 20.7034 5.31035 20.7034 4.7069V1.08621C20.7034 0.482759 21.1861 0 21.7896 0C22.393 0 22.8758 0.482759 22.8758 1.08621V4.7069C22.8758 5.31035 22.393 5.7931 21.7896 5.7931Z" fill="#FCBE00"/>
<path d="M21.7896 41.5172C21.1861 41.5172 20.7034 41.0345 20.7034 40.431V36.8103C20.7034 36.2069 21.1861 35.7241 21.7896 35.7241C22.393 35.7241 22.8758 36.2069 22.8758 36.8103V40.431C22.8758 41.0345 22.393 41.5172 21.7896 41.5172Z" fill="#FCBE00"/>
<path d="M13.824 7.84482C13.462 7.84482 13.0999 7.60344 12.8585 7.36206L11.0482 4.22413C10.8068 3.74137 10.9275 3.01724 11.4102 2.77586C11.893 2.53448 12.6171 2.65517 12.8585 3.13793L14.6689 6.27586C14.9102 6.75861 14.7896 7.48275 14.3068 7.72413C14.0654 7.84482 13.9447 7.84482 13.824 7.84482Z" fill="#FCBE00"/>
<path d="M31.6861 38.8621C31.324 38.8621 30.962 38.6207 30.7206 38.3793L28.9102 35.2414C28.6689 34.7586 28.7896 34.0345 29.2723 33.7931C29.7551 33.5517 30.4792 33.6724 30.7206 34.1552L32.5309 37.2931C32.7723 37.7759 32.6516 38.5 32.1689 38.7414C32.0482 38.8621 31.8068 38.8621 31.6861 38.8621Z" fill="#FCBE00"/>
<path d="M7.91042 13.7586C7.78973 13.7586 7.54835 13.7586 7.42766 13.6379L4.16904 11.8276C3.68628 11.5862 3.56559 10.8621 3.80697 10.3793C4.16904 9.89655 4.77249 9.65517 5.25524 10.0172L8.39318 11.8276C8.87593 12.069 9.11731 12.7931 8.75524 13.2759C8.63455 13.6379 8.27249 13.7586 7.91042 13.7586Z" fill="#FCBE00"/>
<path d="M38.9274 31.7414C38.8067 31.7414 38.5653 31.7414 38.4446 31.6207L35.3067 29.8103C34.8239 29.569 34.5825 28.8448 34.9446 28.3621C35.186 27.8793 35.9101 27.6379 36.3929 28L39.5308 29.8103C40.0136 30.0517 40.2549 30.7759 39.8929 31.2586C39.6515 31.5 39.2894 31.7414 38.9274 31.7414Z" fill="#FCBE00"/>
<path d="M5.7379 21.8448H2.11721C1.51376 21.8448 1.03101 21.3621 1.03101 20.7586C1.03101 20.1552 1.51376 19.6724 2.11721 19.6724H5.7379C6.34135 19.6724 6.82411 20.1552 6.82411 20.7586C6.82411 21.3621 6.34135 21.8448 5.7379 21.8448Z" fill="#FCBE00"/>
<path d="M41.5826 21.8448H37.9619C37.3585 21.8448 36.8757 21.3621 36.8757 20.7586C36.8757 20.1552 37.3585 19.6724 37.9619 19.6724H41.5826C42.1861 19.6724 42.6688 20.1552 42.6688 20.7586C42.5481 21.3621 42.0654 21.8448 41.5826 21.8448Z" fill="#FCBE00"/>
<path d="M4.77249 31.7414C4.41042 31.7414 4.04835 31.5 3.80697 31.2586C3.56559 30.7759 3.68628 30.0517 4.16904 29.8103L7.30697 28C7.78973 27.7586 8.51387 27.8793 8.75525 28.3621C8.99662 28.8448 8.87594 29.569 8.39318 29.8103L5.25525 31.6207C5.13456 31.6207 4.89318 31.7414 4.77249 31.7414Z" fill="#FCBE00"/>
<path d="M35.7896 13.7586C35.4275 13.7586 35.0654 13.5172 34.8241 13.2759C34.5827 12.7931 34.7034 12.069 35.1861 11.8276L38.3241 10.0172C38.8068 9.77586 39.531 9.89655 39.7723 10.3793C40.0137 10.8621 39.893 11.5862 39.4103 11.8276L36.2723 13.6379C36.1516 13.7586 35.9103 13.7586 35.7896 13.7586Z" fill="#FCBE00"/>
<path d="M11.8929 38.8621C11.7722 38.8621 11.5309 38.8621 11.4102 38.7414C10.9274 38.5 10.686 37.7759 11.0481 37.2931L12.8585 34.1552C13.0998 33.6724 13.824 33.431 14.3067 33.7931C14.7895 34.0345 15.0309 34.7586 14.6688 35.2414L12.8585 38.3793C12.6171 38.7414 12.3757 38.8621 11.8929 38.8621Z" fill="#FCBE00"/>
<path d="M29.8758 7.84483C29.7552 7.84483 29.5138 7.84483 29.3931 7.72414C28.9103 7.48276 28.6689 6.75862 29.031 6.27586L30.8414 3.13793C31.0827 2.65517 31.8069 2.41379 32.2896 2.77586C32.7724 3.01724 33.0138 3.74138 32.6517 4.22414L30.8414 7.36207C30.6 7.72414 30.2379 7.84483 29.8758 7.84483Z" fill="#FCBE00"/>
<path d="M21.7895 31.0172C16.2377 31.0172 11.7722 26.5517 11.7722 21C11.7722 15.4483 16.2377 10.9828 21.7895 10.9828C22.3929 10.9828 22.8757 11.4655 22.8757 12.069C22.8757 12.6724 22.3929 13.1552 21.7895 13.1552C17.4446 13.1552 13.9446 16.6552 13.9446 21C13.9446 25.3448 17.4446 28.8448 21.7895 28.8448C26.1343 28.8448 29.755 25.3448 29.755 21C29.755 20.3965 30.2377 19.9138 30.8412 19.9138C31.4446 19.9138 31.9274 20.3965 31.9274 21C31.8067 26.5517 27.3412 31.0172 21.7895 31.0172Z" fill="#FCBE00"/>
<path d="M35.4276 24.1379C35.1862 24.1379 34.9449 24.0172 34.7035 23.7759L30.8414 19.9138L26.9794 23.7759C26.6173 24.1379 25.8931 24.1379 25.5311 23.7759C25.169 23.4138 25.169 22.6896 25.5311 22.3276L30.1173 17.7414C30.4793 17.3793 31.2035 17.3793 31.5656 17.7414L36.1518 22.3276C36.5138 22.6896 36.5138 23.4138 36.1518 23.7759C35.9104 24.0172 35.669 24.1379 35.4276 24.1379Z" fill="#FCBE00"/>
</g>
<defs>
<clipPath id="clip0">
<rect x="0.789551" width="42" height="42" fill="white"/>
</clipPath>
</defs>
</svg>
