<svg width="41" height="35" viewBox="0 0 41 35" fill="none" xmlns="http://www.w3.org/2000/svg">
<g clip-path="url(#clip0)">
<path d="M29.4575 34.6188H7.33431C3.24633 34.6188 0 31.3402 0 27.2116V8.75449C0 3.2902 2.52493 0.618774 7.57478 0.618774C8.17595 0.618774 8.65689 1.10449 8.65689 1.71163C8.65689 2.31877 8.17595 2.68306 7.57478 2.68306C3.60704 2.68306 2.04399 4.38306 2.04399 8.63306V27.0902C2.04399 30.0045 4.32845 32.3116 7.21408 32.3116H29.4575C32.3431 32.3116 34.6276 30.0045 34.6276 27.0902V22.9616C34.6276 22.3545 35.1085 21.8688 35.7097 21.8688C36.3109 21.8688 36.7918 22.3545 36.7918 22.9616V27.0902C36.7918 31.3402 33.5455 34.6188 29.4575 34.6188Z" fill="#FCBE00"/>
<path d="M35.7096 17.3759C35.1084 17.3759 34.6275 16.8902 34.6275 16.2831V14.3402C34.6275 10.2116 31.3812 6.93306 27.2932 6.93306H8.65682C8.05565 6.93306 7.57471 6.44735 7.57471 5.8402C7.57471 5.23306 8.05565 4.74734 8.65682 4.74734H27.4134C32.5835 4.74734 36.912 8.99734 36.912 14.3402V16.4045C36.7917 17.0116 36.3108 17.3759 35.7096 17.3759Z" fill="#FCBE00"/>
<path d="M39.9178 27.4545C39.3166 27.4545 38.8357 26.9688 38.8357 26.3616V12.7616C38.8357 7.17592 34.5072 2.80449 29.0967 2.80449H7.45443C6.85325 2.80449 6.37231 2.31877 6.37231 1.71163C6.37231 1.10449 6.97349 0.618774 7.57466 0.618774H29.2169C35.8298 0.618774 40.9999 5.96163 40.9999 12.7616V26.3616C40.9999 26.9688 40.5189 27.4545 39.9178 27.4545Z" fill="#FCBE00"/>
<path d="M35.7098 24.1759H19.3579C16.9532 24.1759 14.9092 22.2331 14.9092 19.6831C14.9092 17.1331 16.8329 15.1902 19.3579 15.1902H35.83C36.4312 15.1902 36.9121 15.6759 36.9121 16.2831C36.9121 16.8902 36.4312 17.3759 35.83 17.3759H19.3579C18.0353 17.3759 17.0734 18.4688 17.0734 19.6831C17.0734 20.8973 18.1555 21.9902 19.3579 21.9902H35.83C36.4312 21.9902 36.9121 22.4759 36.9121 23.0831C36.7919 23.6902 36.3109 24.1759 35.7098 24.1759Z" fill="#FCBE00"/>
<path d="M19.2374 20.7759C19.835 20.7759 20.3195 20.2866 20.3195 19.6831C20.3195 19.0795 19.835 18.5902 19.2374 18.5902C18.6398 18.5902 18.1553 19.0795 18.1553 19.6831C18.1553 20.2866 18.6398 20.7759 19.2374 20.7759Z" fill="#FCBE00"/>
</g>
<defs>
<clipPath id="clip0">
<rect y="0.618774" width="41" height="34" fill="white"/>
</clipPath>
</defs>
</svg>
