<svg width="12" height="9" viewBox="0 0 12 9" fill="none" xmlns="http://www.w3.org/2000/svg">
<path d="M0 8.45419L3.93808 5.37419L0 2.29419V8.45419Z" fill="#FCBE00"/>
<path d="M7.43064 5.85396C7.39349 5.81396 7.39349 5.81396 7.35634 5.81396C6.91052 6.01396 6.4647 6.13396 6.01888 6.13396C5.57306 6.13396 5.09008 6.01396 4.68141 5.81396C4.64426 5.81396 4.60711 5.85396 4.60711 5.85396L0.594727 8.97396H11.4059L7.43064 5.85396Z" fill="#FCBE00"/>
<path d="M8.02441 5.37419L11.9625 8.45419V2.29419L8.02441 5.37419Z" fill="#FCBE00"/>
<path d="M4.56966 4.85412C5.42415 5.53412 6.57585 5.53412 7.43034 4.85412L12 1.29412V0.974121H0V1.29412L4.56966 4.85412Z" fill="#FCBE00"/>
</svg>
