<svg width="15" height="15" viewBox="0 0 15 15" fill="none" xmlns="http://www.w3.org/2000/svg">
<g clip-path="url(#clip0)">
<path fill-rule="evenodd" clip-rule="evenodd" d="M7.29504 12.4431H8.15538C8.15538 12.4431 8.39001 12.4431 8.54644 12.2878C8.70286 12.1324 8.62465 11.8994 8.62465 11.8994C8.62465 11.8994 8.62465 10.7344 9.09392 10.579C9.64141 10.4237 10.2671 11.6664 10.971 12.1324C11.5185 12.5208 11.9096 12.4431 11.9096 12.4431H13.7867C13.7867 12.4431 14.8034 12.3654 14.3341 11.5887C14.3341 11.5111 14.0995 11.0451 12.9263 9.95768C11.7531 8.8703 11.9096 9.02564 13.3174 7.16156C14.1777 5.99651 14.4906 5.29748 14.4124 4.9868C14.3341 4.67612 13.7084 4.75379 13.7084 4.75379H11.5967C11.5967 4.75379 11.4403 4.75379 11.3621 4.83146C11.2839 4.90913 11.2057 5.06447 11.2057 5.06447C11.2057 5.06447 10.8928 5.99651 10.4235 6.69554C9.48498 8.32661 9.09392 8.40428 8.9375 8.32661C8.54644 8.0936 8.70286 7.39457 8.70286 6.92855C8.70286 5.37515 8.9375 4.75379 8.23359 4.52079C7.99895 4.44312 7.84253 4.44312 7.21683 4.44312C6.43471 4.44312 5.80901 4.44312 5.49616 4.59846C5.26152 4.75379 5.1051 4.9868 5.18331 4.9868C5.33973 4.9868 5.65258 5.06447 5.80901 5.29748C6.04364 5.60816 6.04364 6.22952 6.04364 6.22952C6.04364 6.22952 6.20007 8.0936 5.73079 8.32661C5.41795 8.48195 5.02688 8.17127 4.24476 6.69554C3.8537 5.91884 3.46264 5.14214 3.46264 5.14214C3.46264 5.14214 3.30621 4.9868 3.228 4.90913C3.07158 4.83146 2.91515 4.75379 2.91515 4.75379H0.881633C0.881633 4.75379 0.568784 4.75379 0.490572 4.90913C0.412359 5.06447 0.490572 5.29748 0.490572 5.29748C0.490572 5.29748 2.05482 9.02564 3.8537 10.8897C5.41795 12.5208 7.29504 12.4431 7.29504 12.4431Z" fill="#FCBE00"/>
</g>
<defs>
<clipPath id="clip0">
<rect x="0.490479" y="0.943115" width="14" height="14" fill="white"/>
</clipPath>
</defs>
</svg>
