<svg width="43" height="43" viewBox="0 0 43 43" fill="none" xmlns="http://www.w3.org/2000/svg">
<g clip-path="url(#clip0)">
<path d="M9.96757 43C8.41201 43 6.85645 42.51 5.42056 41.5299L4.46329 40.7949L9.60859 35.5271C9.84791 35.1596 9.96757 34.792 9.96757 34.4245C9.96757 34.057 9.84791 33.6895 9.60859 33.4445C9.36927 33.1994 9.0103 33.0769 8.65133 33.0769C8.29235 33.0769 7.93338 33.1994 7.69406 33.4445L2.54876 38.7123L1.83081 37.7322C-0.323033 34.6695 0.035941 30.2593 2.66842 27.5641L4.58295 25.604C6.7368 23.3989 9.96756 22.6638 12.8394 23.8889L23.7282 12.7407C22.6513 9.80058 23.2496 6.49289 25.4035 4.28776L27.318 2.32764C29.9505 -0.367514 34.2582 -0.735035 37.2496 1.47009L38.2069 2.20514L33.0616 7.47294C32.583 7.96297 32.583 8.94303 33.0616 9.43306C33.4206 9.67807 33.6599 9.80058 34.0188 9.80058C34.3778 9.80058 34.7368 9.67807 34.9761 9.43306L40.1214 4.16525L40.8394 5.14531C42.9932 8.20798 42.6342 12.6182 40.0018 15.3134L38.0872 17.2735C35.9334 19.4786 32.7026 20.2137 29.8308 18.9886L18.9419 30.1368C20.0188 33.0769 19.4206 36.3846 17.2667 38.5898L15.3522 40.5499C13.9163 42.1425 12.0018 43 9.96757 43ZM7.81372 40.3049C9.84791 41.1624 12.3607 40.7949 13.9163 39.0798L15.8308 37.1197C17.506 35.4046 17.9847 32.7094 16.9077 30.5043L16.5488 29.7692L29.5915 16.416L30.3094 16.7835C32.4633 17.886 35.0958 17.5185 36.771 15.6809L38.6855 13.7208C40.3607 12.0057 40.7197 9.55556 39.8821 7.47294L36.5317 11.0256C35.9334 11.6382 34.9761 12.0057 34.1385 12.0057C33.1812 12.0057 32.3436 11.6382 31.7453 11.0256C30.4291 9.67807 30.4291 7.35044 31.7453 6.00286L35.0958 2.57266C33.0616 1.71511 30.5488 2.08263 28.9932 3.79773L27.0787 5.75784C25.4035 7.47294 24.9248 10.1681 26.0018 12.3732L26.3607 13.1083L13.1983 26.4615L12.4804 26.094C10.3265 24.9915 7.69406 25.359 6.01885 27.1966L4.10432 29.1567C2.4291 30.8718 2.07013 33.3219 2.90774 35.4046L6.25816 31.9744C6.85645 31.3618 7.81372 30.9943 8.65133 30.9943C9.48893 30.9943 10.4462 31.3618 11.0445 31.9744C11.6428 32.5869 12.0018 33.567 12.0018 34.4245C12.0018 35.4046 11.6428 36.2621 11.0445 36.8747L7.81372 40.3049Z" fill="#FCBE00"/>
</g>
<defs>
<clipPath id="clip0">
<rect x="0.39502" width="42" height="43" fill="white"/>
</clipPath>
</defs>
</svg>
