<svg width="148" height="27" viewBox="0 0 148 27" fill="none" xmlns="http://www.w3.org/2000/svg">
<g clip-path="url(#clip0)">
<path d="M1.20514 26.3528C0.539143 26.3528 0 25.8298 0 25.1836V11.3169C0 10.6708 0.539143 10.1477 1.20514 10.1477C1.87114 10.1477 2.41029 10.6708 2.41029 11.3169V25.1939C2.39971 25.8298 1.86057 26.3528 1.20514 26.3528Z" fill="white"/>
<path d="M6.52259 26.3527C5.85659 26.3527 5.31744 25.8297 5.31744 25.1835V5.72709C5.31744 5.08094 5.85659 4.55786 6.52259 4.55786C7.18859 4.55786 7.72773 5.08094 7.72773 5.72709V25.1938C7.72773 25.8297 7.18859 26.3527 6.52259 26.3527Z" fill="white"/>
<path d="M11.8506 26.3527C11.1846 26.3527 10.6454 25.8296 10.6454 25.1835V2.83476C10.6454 2.1886 11.1846 1.66553 11.8506 1.66553C12.5166 1.66553 13.0557 2.1886 13.0557 2.83476V25.1835C13.0452 25.8296 12.506 26.3527 11.8506 26.3527Z" fill="white"/>
<path d="M17.168 26.3528C16.502 26.3528 15.9628 25.8297 15.9628 25.1835V1.55278C15.9628 0.906622 16.502 0.383545 17.168 0.383545C17.834 0.383545 18.3731 0.906622 18.3731 1.55278V25.1938C18.3731 25.8297 17.834 26.3528 17.168 26.3528Z" fill="white"/>
<path d="M22.496 26.3528C21.83 26.3528 21.2909 25.8297 21.2909 25.1835V1.55278C21.2909 0.906622 21.83 0.383545 22.496 0.383545C23.162 0.383545 23.7012 0.906622 23.7012 1.55278V25.1938C23.6906 25.8297 23.1515 26.3528 22.496 26.3528Z" fill="white"/>
<path d="M27.8134 26.3527C27.1474 26.3527 26.6083 25.8296 26.6083 25.1835V2.83476C26.6083 2.1886 27.1474 1.66553 27.8134 1.66553C28.4794 1.66553 29.0186 2.1886 29.0186 2.83476V25.1835C29.0186 25.8296 28.4794 26.3527 27.8134 26.3527Z" fill="white"/>
<path d="M33.1309 26.3527C32.4649 26.3527 31.9257 25.8297 31.9257 25.1835V5.72709C31.9257 5.08094 32.4649 4.55786 33.1309 4.55786C33.7969 4.55786 34.336 5.08094 34.336 5.72709V25.1938C34.336 25.8297 33.7969 26.3527 33.1309 26.3527Z" fill="white"/>
<path d="M38.4589 26.3528C37.7929 26.3528 37.2537 25.8298 37.2537 25.1836V11.3169C37.2537 10.6708 37.7929 10.1477 38.4589 10.1477C39.1249 10.1477 39.664 10.6708 39.664 11.3169V25.1939C39.664 25.8298 39.1249 26.3528 38.4589 26.3528Z" fill="white"/>
<path d="M70.2471 14.0245V16.9681C70.2471 22.1579 65.4688 26.3835 59.5911 26.3835H50.32C49.5588 26.3835 48.9351 25.8399 48.9351 25.163C48.9351 24.4963 49.5588 23.9425 50.32 23.9425H59.5911C63.9465 23.9425 67.4774 20.8143 67.4774 16.9579V14.0245C67.4774 10.1784 63.936 7.0399 59.5911 7.0399H55.5317C53.4174 7.0399 51.7048 8.55785 51.7048 10.4348V15.5014C51.7048 16.1681 51.0811 16.722 50.32 16.722C49.5588 16.722 48.9351 16.1784 48.9351 15.5014V10.4245C48.9351 7.21426 51.8951 4.59888 55.5317 4.59888H59.5911C65.4688 4.59888 70.2471 8.82452 70.2471 14.0245Z" fill="white"/>
<path d="M122.058 15.4912V20.5578C122.058 23.7681 119.098 26.3835 115.461 26.3835H111.402C105.524 26.3835 100.746 22.1578 100.746 16.9681V14.0245C100.746 8.83477 105.524 4.60913 111.402 4.60913H120.673C121.434 4.60913 122.058 5.15272 122.058 5.82964C122.058 6.50657 121.434 7.05016 120.673 7.05016H111.402C107.057 7.05016 103.515 10.1784 103.515 14.0348V16.9784C103.515 20.8245 107.057 23.963 111.402 23.963H115.461C117.575 23.963 119.288 22.445 119.288 20.5681V15.5014C119.288 14.8348 119.912 14.2809 120.673 14.2809C121.445 14.2809 122.058 14.8245 122.058 15.4912Z" fill="white"/>
<path d="M96.1683 5.81939V16.9681C96.1683 22.1579 91.39 26.3835 85.5123 26.3835C79.6346 26.3835 74.8563 22.1579 74.8563 16.9681V5.81939C74.8563 5.15272 75.48 4.59888 76.2411 4.59888C77.0023 4.59888 77.626 5.14247 77.626 5.81939V16.9681C77.626 20.8143 81.1674 23.9527 85.5123 23.9527C89.8677 23.9527 93.3986 20.8245 93.3986 16.9681V5.81939C93.3986 5.15272 94.0223 4.59888 94.7834 4.59888C95.5446 4.59888 96.1683 5.15272 96.1683 5.81939Z" fill="white"/>
<path d="M148 14.0245V25.1733C148 25.8399 147.376 26.3938 146.615 26.3938C145.854 26.3938 145.23 25.8502 145.23 25.1733V14.0245C145.23 10.1784 141.689 7.03992 137.344 7.03992C132.999 7.03992 129.458 10.1681 129.458 14.0245V25.1733C129.458 25.8399 128.834 26.3938 128.073 26.3938C127.312 26.3938 126.688 25.8502 126.688 25.1733V14.0245C126.688 8.83479 131.466 4.60915 137.344 4.60915C143.222 4.59889 148 8.82453 148 14.0245Z" fill="white"/>
</g>
<defs>
<clipPath id="clip0">
<rect y="0.383545" width="148" height="26" fill="white"/>
</clipPath>
</defs>
</svg>
